<?xml version="1.0" encoding="utf-8"?>
<!-- Generator: Adobe Illustrator 22.1.0, SVG Export Plug-In . SVG Version: 6.00 Build 0)  -->
<svg version="1.1" xmlns="http://www.w3.org/2000/svg" xmlns:xlink="http://www.w3.org/1999/xlink" x="0px" y="0px"
	 viewBox="0 0 600 400" style="enable-background:new 0 0 600 400;" xml:space="preserve">
<style type="text/css">
	.st0{fill:#040000;stroke:#040000;stroke-width:0.5;stroke-miterlimit:10;}
	.st1{fill:#DE502E;stroke:#DE502E;stroke-width:0.5;stroke-miterlimit:10;}
	.st2{stroke:#000000;stroke-miterlimit:10;}
	.st3{stroke:#000000;stroke-width:0.75;stroke-miterlimit:10;}
	.st4{stroke:#000000;stroke-width:0.5;stroke-miterlimit:10;}
	.st5{stroke:#000000;stroke-width:0.25;stroke-miterlimit:10;}
	.st6{fill:#040000;}
	.st7{opacity:0.5;fill:#E32D28;}
</style>
<g id="レイヤー_1">
	<g>
		<path class="st6" d="M132.1,138.5c-1.8-2-4-3.6-6.5-4.9c-1.5-0.8-3.3-1.1-4.9-1.1l-21.5,0c-1.6,0-3.2,0.3-4.6,1
			c-2.7,1.3-5.1,2.9-7.2,4.9c-9.3,8.4-10.6,18.1-11.3,28.1l-4.2,64.3c-0.6,9.7-0.6,19.8,7.7,28.4c5.1,5.5,12.7,8.4,21.9,8.4
			c9.2,0,17-2.8,22.8-8.2c9.3-8.4,10.6-18.1,11.3-28.1l4.2-64.3C140.5,157.2,140.4,147,132.1,138.5z M123.2,163.5l-4.6,70.3
			c-0.3,4.5-0.9,8.6-5,12.6c-2.8,2.6-6.9,4.1-11.2,4.1c-4.2,0-8-1.4-10.4-3.9c-3.5-3.9-3.6-7.9-3.3-12.4l4.6-70.3
			c0.3-4.3,0.9-8.6,5.1-12.5c2.8-2.7,6.8-4.2,11.2-4.2c4.3,0,8.1,1.5,10.4,4.1C123.4,155,123.4,159,123.2,163.5z"/>
		<path class="st6" d="M383.4,138.5c-1.8-2-4-3.6-6.5-4.9c-1.5-0.8-3.3-1.1-4.9-1.1l-21.5,0c-1.6,0-3.2,0.3-4.6,1
			c-2.7,1.3-5.1,2.9-7.2,4.9c-9.3,8.4-10.6,18.1-11.3,28.1l-4.2,64.3c-0.6,9.7-0.6,19.8,7.7,28.4c5.1,5.5,12.7,8.4,21.9,8.4
			c9.2,0,17-2.8,22.8-8.2c9.3-8.4,10.6-18.1,11.3-28.1l4.2-64.3C391.7,157.2,391.6,147,383.4,138.5z M374.4,163.5l-4.6,70.3
			c-0.3,4.5-0.9,8.6-5,12.6c-2.8,2.6-6.9,4.1-11.2,4.1c-4.2,0-8-1.4-10.4-3.9c-3.5-3.9-3.6-7.9-3.3-12.4l4.6-70.3
			c0.3-4.3,0.9-8.6,5.1-12.5c2.8-2.7,6.8-4.2,11.2-4.2c4.3,0,8.1,1.5,10.4,4.1C374.6,155,374.7,159,374.4,163.5z"/>
		<g>
			<path class="st6" d="M209.8,263.6h-11.5c-1.3,0-2.5-0.9-2.9-2.1l-21.5-67.9c-1-3.1-5.4-2.8-5.6,0.4l-4.7,67.1
				c-0.1,1.4-1.3,2.5-2.7,2.5h-11.1c-1.7,0-3.1-1.5-3-3.2l8.9-125.8h16.3l0.4,1.3l21.7,70.1c1,3.1,5.4,2.8,5.6-0.4l4.8-68.5
				c0.1-1.4,1.3-2.5,2.7-2.5h11.1c1.7,0,3.1,1.5,3,3.2l-8.7,123.3C212.4,262.6,211.3,263.6,209.8,263.6z"/>
		</g>
		<g>
			<path class="st6" d="M277.7,263.6H229c-1.7,0-3.1-1.5-3-3.2l8.9-125.8h50.7c1.7,0,3.1,1.5,3,3.2l-0.7,10.1
				c-0.1,1.4-1.2,2.5-2.7,2.5h-32c-1.4,0-2.6,1.1-2.7,2.5l-2.4,34.7c-0.1,1.7,1.3,3.2,3,3.2h26.3c1.7,0,3.1,1.5,3,3.2l-0.7,9.4
				c-0.1,1.4-1.2,2.5-2.7,2.5h-27.7c-1.4,0-2.6,1.1-2.7,2.5l-2.6,36.3c-0.1,1.7,1.3,3.2,3,3.2h31.1c1.7,0,3.1,1.5,3,3.2l-0.7,10.1
				C280.3,262.6,279.1,263.6,277.7,263.6z"/>
		</g>
		<g>
			<path class="st6" d="M412,263.6h-11c-1.8,0-3.2-1.5-3.1-3.3l8.9-125.7h51.8c1.8,0,3.2,1.5,3.1,3.3l-0.7,9.9
				c-0.1,1.5-1.3,2.6-2.8,2.6h-33c-1.5,0-2.7,1.1-2.8,2.6l-2.4,34.5c-0.1,1.7,1.3,3.3,3.1,3.3h26.9c1.8,0,3.2,1.5,3.1,3.3l-0.7,9.2
				c-0.1,1.5-1.3,2.6-2.8,2.6h-28.4c-1.5,0-2.7,1.1-2.8,2.6l-3.7,52.6C414.7,262.5,413.5,263.6,412,263.6z"/>
		</g>
		<g>
			<path class="st6" d="M477.5,263.6h-11.1c-1.7,0-3.2-1.5-3-3.2l8.9-125.8h51.8c1.7,0,3.2,1.5,3,3.2l-0.7,10
				c-0.1,1.5-1.3,2.5-2.7,2.5h-33.1c-1.5,0-2.6,1.1-2.7,2.5l-2.4,34.6c-0.1,1.7,1.3,3.2,3,3.2h27c1.7,0,3.2,1.5,3,3.2l-0.7,9.3
				c-0.1,1.5-1.3,2.5-2.7,2.5h-28.4c-1.5,0-2.6,1.1-2.7,2.5l-3.7,52.7C480.1,262.6,478.9,263.6,477.5,263.6z"/>
		</g>
		<path class="st6" d="M312.8,206.7h-20.6c-1.2,0-2.2-1.1-2.1-2.3l0.9-12.8h22.4c1.2,0,2.2,1.1,2.1,2.3l-0.8,11
			C314.7,205.9,313.9,206.7,312.8,206.7z"/>
	</g>
</g>
<g id="レイヤー_2">
</g>
</svg>
