<?xml version="1.0" encoding="utf-8"?>
<!-- Generator: Adobe Illustrator 22.1.0, SVG Export Plug-In . SVG Version: 6.00 Build 0)  -->
<svg version="1.1" id="レイヤー_1" xmlns="http://www.w3.org/2000/svg" xmlns:xlink="http://www.w3.org/1999/xlink" x="0px"
	 y="0px" viewBox="0 0 600 135.1" style="enable-background:new 0 0 600 135.1;" xml:space="preserve">
<style type="text/css">
	.st0{fill:#040000;}
</style>
<g id="レイヤー_1_1_">
	<g>
		<path class="st0" d="M132.1,6c-1.8-2-4-3.6-6.5-4.9c-1.5-0.8-3.3-1.1-4.9-1.1H99.2c-1.6,0-3.2,0.3-4.6,1c-2.7,1.3-5.1,2.9-7.2,4.9
			C78.1,14.3,76.8,24,76.1,34l-4.2,64.3c-0.6,9.7-0.6,19.8,7.7,28.4c5.1,5.5,12.7,8.4,21.9,8.4s17-2.8,22.8-8.2
			c9.3-8.4,10.6-18.1,11.3-28.1l4.2-64.3C140.5,24.7,140.4,14.5,132.1,6z M123.2,31l-4.6,70.3c-0.3,4.5-0.9,8.6-5,12.6
			c-2.8,2.6-6.9,4.1-11.2,4.1c-4.2,0-8-1.4-10.4-3.9c-3.5-3.9-3.6-7.9-3.3-12.4l4.6-70.3c0.3-4.3,0.9-8.6,5.1-12.5
			c2.8-2.7,6.8-4.2,11.2-4.2c4.3,0,8.1,1.5,10.4,4.1C123.4,22.5,123.4,26.5,123.2,31z"/>
		<path class="st0" d="M383.4,6c-1.8-2-4-3.6-6.5-4.9C375.4,0.3,373.6,0,372,0h-21.5c-1.6,0-3.2,0.3-4.6,1c-2.7,1.3-5.1,2.9-7.2,4.9
			c-9.3,8.4-10.6,18.1-11.3,28.1l-4.2,64.3c-0.6,9.7-0.6,19.8,7.7,28.4c5.1,5.5,12.7,8.4,21.9,8.4c9.2,0,17-2.8,22.8-8.2
			c9.3-8.4,10.6-18.1,11.3-28.1l4.2-64.3C391.7,24.7,391.6,14.5,383.4,6z M374.4,31l-4.6,70.3c-0.3,4.5-0.9,8.6-5,12.6
			c-2.8,2.6-6.9,4.1-11.2,4.1c-4.2,0-8-1.4-10.4-3.9c-3.5-3.9-3.6-7.9-3.3-12.4l4.6-70.3c0.3-4.3,0.9-8.6,5.1-12.5
			c2.8-2.7,6.8-4.2,11.2-4.2c4.3,0,8.1,1.5,10.4,4.1C374.6,22.5,374.7,26.5,374.4,31z"/>
		<g>
			<path class="st0" d="M209.8,131.1h-11.5c-1.3,0-2.5-0.9-2.9-2.1l-21.5-67.9c-1-3.1-5.4-2.8-5.6,0.4l-4.7,67.1
				c-0.1,1.4-1.3,2.5-2.7,2.5h-11.1c-1.7,0-3.1-1.5-3-3.2l8.9-125.8H172l0.4,1.3l21.7,70.1c1,3.1,5.4,2.8,5.6-0.4l4.8-68.5
				c0.1-1.4,1.3-2.5,2.7-2.5h11.1c1.7,0,3.1,1.5,3,3.2l-8.7,123.3C212.4,130.1,211.3,131.1,209.8,131.1z"/>
		</g>
		<g>
			<path class="st0" d="M277.7,131.1H229c-1.7,0-3.1-1.5-3-3.2l8.9-125.8h50.7c1.7,0,3.1,1.5,3,3.2l-0.7,10.1
				c-0.1,1.4-1.2,2.5-2.7,2.5h-32c-1.4,0-2.6,1.1-2.7,2.5l-2.4,34.7c-0.1,1.7,1.3,3.2,3,3.2h26.3c1.7,0,3.1,1.5,3,3.2l-0.7,9.4
				c-0.1,1.4-1.2,2.5-2.7,2.5h-27.7c-1.4,0-2.6,1.1-2.7,2.5l-2.6,36.3c-0.1,1.7,1.3,3.2,3,3.2h31.1c1.7,0,3.1,1.5,3,3.2l-0.7,10.1
				C280.3,130.1,279.1,131.1,277.7,131.1z"/>
		</g>
		<g>
			<path class="st0" d="M412,131.1h-11c-1.8,0-3.2-1.5-3.1-3.3l8.9-125.7h51.8c1.8,0,3.2,1.5,3.1,3.3l-0.7,9.9
				c-0.1,1.5-1.3,2.6-2.8,2.6h-33c-1.5,0-2.7,1.1-2.8,2.6L420,55c-0.1,1.7,1.3,3.3,3.1,3.3H450c1.8,0,3.2,1.5,3.1,3.3l-0.7,9.2
				c-0.1,1.5-1.3,2.6-2.8,2.6h-28.4c-1.5,0-2.7,1.1-2.8,2.6l-3.7,52.6C414.7,130,413.5,131.1,412,131.1z"/>
		</g>
		<g>
			<path class="st0" d="M477.5,131.1h-11.1c-1.7,0-3.2-1.5-3-3.2l8.9-125.8h51.8c1.7,0,3.2,1.5,3,3.2l-0.7,10
				c-0.1,1.5-1.3,2.5-2.7,2.5h-33.1c-1.5,0-2.6,1.1-2.7,2.5l-2.4,34.6c-0.1,1.7,1.3,3.2,3,3.2h27c1.7,0,3.2,1.5,3,3.2l-0.7,9.3
				c-0.1,1.5-1.3,2.5-2.7,2.5h-28.4c-1.5,0-2.6,1.1-2.7,2.5l-3.7,52.7C480.1,130.1,478.9,131.1,477.5,131.1z"/>
		</g>
		<path class="st0" d="M312.8,74.2h-20.6c-1.2,0-2.2-1.1-2.1-2.3l0.9-12.8h22.4c1.2,0,2.2,1.1,2.1,2.3l-0.8,11
			C314.7,73.4,313.9,74.2,312.8,74.2z"/>
	</g>
</g>
<g id="レイヤー_2_1_">
</g>
</svg>
